<?xml version="1.0" encoding="utf-8"?>
<!-- Generator: Adobe Illustrator 22.1.0, SVG Export Plug-In . SVG Version: 6.00 Build 0)  -->
<svg version="1.1" id="Layer_1" xmlns="http://www.w3.org/2000/svg" xmlns:xlink="http://www.w3.org/1999/xlink" x="0px" y="0px"
	 viewBox="260 400 550 280" width="70px">
<style type="text/css">
	.st0{fill:#141414;}
</style>
<g>
	<path class="st0" d="M317.2,476.2c1.9,0,3.4-1,4.6-2.9c1.1-1.9,1.7-4.2,1.7-6.9c0-2.6-0.6-4.9-1.7-6.9c-1.1-1.9-2.7-2.9-4.6-2.9
		h-22.6V425c0-2.1-1.2-3.8-3.7-5.2c-2.5-1.4-5.4-2.1-8.7-2.1c-3.1,0-5.9,0.7-8.4,2.2c-2.6,1.5-3.8,3.2-3.8,5.4V517
		c0,20.4,11.8,30.7,35.4,30.7h7.5c3.3,0,5.9-1.1,7.8-3.2c1.8-2.1,2.8-4.7,2.8-7.8c0-2.9-0.9-5.5-2.8-7.6c-1.9-2.1-4.4-3.2-7.8-3.2
		h-7.5c-4,0-6.7-0.7-8.3-2.2c-1.6-1.5-2.4-4-2.4-7.5v-39.9H317.2z"/>
	<path class="st0" d="M441.2,544.4c6.8,3.3,14.9,5,24.5,5c11.1,0,19.7-2.5,25.9-7.6c6.2-5.1,9.3-12,9.3-20.9c0-5.2-1.1-9.7-3.4-13.3
		c-2.3-3.7-5-6.4-8.4-8.1c-3.3-1.7-6.9-3.3-10.8-4.6c-3.9-1.3-7.5-2.3-10.9-3.1c-3.4-0.7-6.2-1.8-8.5-3.2c-2.3-1.4-3.4-3.1-3.4-5.2
		c0-2.1,1.1-4,3.4-5.8c2.3-1.7,5.6-2.6,10-2.6c4,0,8.2,0.8,12.7,2.4c4.5,1.6,7.3,2.4,8.3,2.4c2.6,0,4.7-1.4,6.4-4.3
		c1.7-2.9,2.6-5.4,2.6-7.6c0-3.4-3.1-6.4-9.3-8.8c-6.2-2.4-13.2-3.6-21.2-3.6c-11.9,0-20.5,2.9-26,8.6c-5.5,5.7-8.2,12.5-8.2,20.4
		c0,5.7,1.6,10.4,4.7,14.1c3.1,3.7,6.9,6.3,11.4,7.8c4.5,1.6,8.9,2.9,13.3,4c4.4,1.1,8.2,2.5,11.3,4.3c3.1,1.7,4.7,4.1,4.7,7.1
		c0,5.3-4.7,8-14.1,8c-4.8,0-8.9-0.7-12.4-2c-3.5-1.3-6.3-2.6-8.4-3.9c-2.1-1.3-3.9-1.9-5.3-1.9c-2.2,0-4.1,1.2-5.8,3.7
		c-1.7,2.5-2.5,4.9-2.5,7.2C431,537.2,434.4,541.1,441.2,544.4z"/>
	<path class="st0" d="M519.7,545.3c2.3,1.6,5.2,2.4,8.6,2.4c3.3,0,6.3-0.8,8.8-2.5c2.6-1.7,3.8-3.4,3.8-5.4v-21.1l11.9-10.9
		l25.8,38.1c1.5,2.2,3.6,3.3,6.1,3.3c3.1,0,6.2-1.3,9.3-4c3.1-2.7,4.7-5.4,4.7-8.2c0-1.4-0.4-2.7-1.3-4l-28.1-40.2l22.6-20.5
		c1.4-1.4,2.1-2.9,2.1-4.6c0-2.8-1.3-5.5-4-8c-2.7-2.6-5.4-3.8-8-3.8c-1.8,0-3.4,0.6-5,1.9l-36,33.9v-80.2c0-2.3-1.2-4.1-3.6-5.6
		c-2.4-1.4-5.4-2.1-9-2.1c-3.6,0-6.5,0.7-8.7,2.1c-2.2,1.4-3.4,3.3-3.4,5.6v128.5C516.2,541.8,517.4,543.7,519.7,545.3z"/>
	<path class="st0" d="M615.5,545.3c2.4,1.6,5.3,2.4,8.7,2.4c3.3,0,6.2-0.8,8.7-2.5c2.5-1.7,3.7-3.4,3.7-5.4V411.3
		c0-2.3-1.2-4.1-3.6-5.6c-2.4-1.4-5.4-2.1-8.8-2.1c-3.7,0-6.7,0.7-8.9,2.1c-2.2,1.4-3.3,3.3-3.3,5.6v128.5
		C611.9,541.8,613.1,543.7,615.5,545.3z"/>
	<path class="st0" d="M667,538.5c8.6,7.2,19.7,10.8,33.4,10.8c9.6,0,17.6-1.8,24-5.3c6.4-3.5,9.7-7,9.7-10.6c0-2.3-0.9-4.7-2.7-7.2
		c-1.8-2.5-4-3.7-6.7-3.7c-1.4,0-4.5,1.2-9.2,3.6c-4.7,2.4-9.5,3.6-14.4,3.6c-6.8,0-12.2-1.7-16.3-5.1c-4.1-3.4-6.1-7.8-6.1-13.3
		v-2.9h38.9c2.7,0,4.8-0.1,6.5-0.4c1.7-0.3,3.5-0.9,5.5-1.9c2-1,3.4-2.7,4.4-5.2c1-2.5,1.4-5.6,1.4-9.4c0-10.4-3.9-19-11.6-25.9
		c-7.7-6.9-17-10.3-27.9-10.3c-11.6,0-21.5,3.8-29.7,11.3c-8.2,7.5-12.3,16.5-12.3,27v16.3C654.1,521.9,658.4,531.3,667,538.5z
		 M678.8,489c0-4.2,1.7-7.5,5-10.1c3.3-2.6,7.2-3.8,11.7-3.8c4.7,0,8.7,1.3,12,3.9c3.3,2.6,4.9,6,4.9,10.2c0,1.9-0.4,3.2-1.2,3.8
		c-0.8,0.7-2.3,1-4.3,1h-27.9V489z"/>
	<path class="st0" d="M810.1,522.4c0-14.9-12-26.9-26.9-26.9c-14.9,0-26.9,12-26.9,26.9c0,7.6,3.2,14.5,8.2,19.3
		C728,610.4,655.3,655,576.3,655c-76.6,0-147.8-41.9-185.4-108c5.6-1.9,10.7-5,15.3-9.4c8.2-7.8,12.3-16.8,12.3-27.2v-46.1
		c0-2-1.1-3.8-3.4-5.4c-2.3-1.5-5.2-2.3-8.8-2.3c0,0,0,0-0.1,0c-0.1,0-0.1,0-0.2,0h-10c-5.3,0-9.6,4.3-9.6,9.6
		c0,4.5,3.2,8.4,7.4,9.4v34.7c0,4.5-1.6,8.4-4.9,11.9c-3.3,3.5-7.2,5.2-11.8,5.2c-4.6,0-8.6-1.8-11.9-5.2c-3.3-3.5-5-7.5-5-11.9
		v-34.8c4-1.2,7-4.8,7-9.2c0-5.3-4.3-9.6-9.6-9.6h-10c-0.4,0-0.7,0.1-1,0.1c-2.7,0.2-5.2,1-7.3,2.4c-2.5,1.7-3.7,3.4-3.7,5.4v45.9
		c0,10.3,4.1,19.4,12.3,27.2c5.8,5.5,12.3,9,19.6,10.6c39.8,78,121.1,128,208.8,128c87.9,0,168.6-50.1,208.4-127.1
		C798.8,548.5,810.1,536.8,810.1,522.4z"/>
</g>
</svg>
